<svg xmlns="http://www.w3.org/2000/svg" viewBox="0 0 188 56.03"><defs><style>.a{fill:#ed1c24;}.b{fill:#231f20;}</style></defs><title>Dahua Technology logo</title><polygon class="a" points="70.1 31.55 79.94 0.94 68.43 0.94 62.62 19.07 62.55 18.4 62.51 17.72 62.41 17.08 62.33 16.4 62.19 15.76 62.05 15.11 61.87 14.47 61.69 13.84 61.47 13.19 61.27 12.59 60.98 11.95 60.73 11.34 60.41 10.77 60.09 10.16 59.73 9.55 59.37 8.98 58.62 7.95 57.81 6.99 56.95 6.1 55.99 5.24 55.03 4.45 53.99 3.74 52.89 3.1 51.74 2.51 50.57 1.96 49.36 1.5 48.11 1.1 46.83 0.76 45.48 0.5 44.12 0.26 42.73 0.11 41.34 0.04 39.88 0 38.42 0.04 36.95 0.14 35.46 0.32 33.96 0.54 32.47 0.83 30.94 1.18 29.44 1.61 27.91 2.1 26.38 2.63 24.87 3.28 23.34 3.96 21.84 4.71 20.35 5.53 18.89 6.38 17.43 7.34 16 8.34 14.64 9.38 13.33 10.44 12.08 11.55 10.87 12.69 9.73 13.87 8.63 15.08 7.63 16.33 6.66 17.57 5.73 18.83 4.92 20.14 4.14 21.43 3.42 22.75 2.78 24.1 2.17 25.42 1.67 26.77 1.21 28.09 0.82 29.44 0.54 30.8 0.29 32.12 0.11 33.47 0.03 34.79 0 36.08 0.03 37.37 0.18 38.64 0.39 39.88 0.64 41.14 0.99 42.34 1.46 43.49 1.96 44.67 2.56 45.78 3.24 46.84 3.96 47.84 4.73 48.77 5.56 49.65 6.45 50.47 7.38 51.23 8.34 51.94 9.37 52.58 10.44 53.18 11.55 53.72 12.69 54.18 13.89 54.61 15.11 54.97 16.35 55.25 17.64 55.5 18.92 55.72 20.28 55.83 21.63 55.9 22.99 55.9 24.38 55.86 25.81 55.75 27.23 55.61 28.66 55.36 30.08 55.12 31.55 54.76 33 54.36 34.43 53.9 35.89 53.4 37.35 52.79 38.77 52.19 40.2 51.48 41.63 50.73 43.05 49.91 43.05 47.63 41.84 48.27 40.66 48.84 39.45 49.37 38.23 49.87 36.99 50.29 35.79 50.69 34.57 51.05 33.36 51.34 32.15 51.58 30.94 51.77 29.76 51.94 28.54 52.01 27.37 52.08 26.23 52.08 25.05 52.05 23.95 51.94 22.81 51.8 21.74 51.62 20.67 51.4 19.64 51.12 18.61 50.76 17.6 50.41 16.65 49.97 15.72 49.51 14.82 48.99 13.97 48.45 13.11 47.84 12.33 47.16 11.58 46.45 10.9 45.7 10.23 44.92 9.62 44.06 9.02 43.13 8.52 42.15 8.05 41.14 7.66 40.1 7.34 39.04 7.09 37.96 6.91 36.86 6.81 35.76 6.74 34.61 6.74 33.47 6.81 32.34 6.95 31.16 7.16 30.02 7.41 28.84 7.73 27.66 8.1 26.48 8.55 25.35 9.02 24.17 9.59 23.02 10.19 21.89 10.83 20.75 11.58 19.64 12.33 18.54 13.15 17.47 14.04 16.4 14.97 15.36 15.96 14.33 17 13.33 18.07 12.37 19.2 11.45 20.39 10.56 21.6 9.7 22.84 8.88 24.12 8.13 25.41 7.42 26.73 6.77 28.02 6.2 29.32 5.67 30.65 5.21 31.97 4.78 33.29 4.42 34.61 4.1 35.89 3.89 37.21 3.68 38.49 3.54 39.77 3.46 41.02 3.46 42.27 3.49 43.48 3.56 44.69 3.71 45.87 3.92 47 4.17 48.15 4.5 49.22 4.85 50.29 5.28 51.32 5.74 52.32 6.28 53.25 6.84 54.14 7.49 55.03 8.2 55.81 8.95 56.6 9.73 57.31 10.59 57.95 11.52 58.48 12.34 58.95 13.16 59.34 13.98 59.69 14.87 59.98 15.72 60.23 16.61 60.41 17.54 60.58 18.47 60.69 19.43 60.73 20.39 60.77 21.39 60.73 22.39 60.66 23.43 60.55 24.45 60.41 25.49 60.23 26.56 59.98 27.7 59.66 28.84 59.3 29.95 58.91 31.01 58.48 32.05 57.98 33.08 57.45 34.08 56.88 35.09 56.24 36.04 55.56 37.01 54.85 37.93 54.06 38.86 53.21 39.74 52.32 40.64 51.39 41.5 50.39 42.34 50.86 42.46 51.32 42.53 51.79 42.59 52.28 42.67 52.82 42.75 53.35 42.81 53.89 42.81 54.42 42.81 55.2 42.81 55.95 42.78 56.74 42.71 57.48 42.56 58.02 42.46 58.59 42.34 59.13 42.21 59.66 42.03 60.16 41.85 60.69 41.63 61.19 41.42 61.69 41.17 62.19 40.92 62.66 40.67 63.12 40.39 63.58 40.07 64.05 39.78 64.47 39.46 64.9 39.11 65.33 38.75 65.72 38.39 66.11 38 66.5 37.61 66.86 37.22 67.22 36.79 67.57 36.36 67.89 35.93 68.17 35.47 68.5 35.01 68.75 34.54 69.03 34.08 69.28 33.58 69.5 33.08 69.71 32.59 69.92 32.05 70.1 31.55"/><polygon class="b" points="119.35 42.81 119.46 42.81 119.5 42.81 119.61 42.81 120.46 42.81 121.31 42.75 122.13 42.64 122.95 42.46 123.78 42.28 124.56 42.07 125.34 41.77 126.13 41.5 126.88 41.14 127.59 40.79 128.3 40.36 129.01 39.93 129.65 39.46 130.3 38.97 130.94 38.43 131.51 37.86 130.19 42.03 141.59 42.03 151.46 11.66 139.88 11.66 134.57 28.16 134.51 28.38 134.29 29.09 134.07 29.62 133.83 30.13 133.55 30.59 133.22 31.05 132.87 31.48 132.47 31.87 132.08 32.27 131.65 32.59 131.19 32.91 130.69 33.19 130.19 33.4 129.65 33.63 129.12 33.79 128.58 33.94 128.01 34.01 127.42 34.08 127.16 34.04 126.91 33.97 126.66 33.9 126.41 33.79 126.2 33.7 125.99 33.54 125.81 33.4 125.62 33.23 125.45 33.01 125.31 32.83 125.2 32.59 125.1 32.37 124.99 32.12 124.95 31.83 124.91 31.58 124.88 31.3 124.95 30.84 125.06 30.37 131.04 11.66 119.53 11.66 112.66 32.98 112.54 33.33 112.48 33.7 112.41 34.01 112.37 34.37 112.26 34.79 112.19 35.22 112.13 35.61 112.13 36.04 112.16 36.72 112.26 37.36 112.41 38.01 112.62 38.61 112.87 39.17 113.19 39.74 113.58 40.25 113.97 40.71 114.44 41.14 114.94 41.53 115.47 41.89 116.05 42.17 116.65 42.39 117.25 42.56 117.89 42.7 118.56 42.75 118.86 42.81 119.21 42.81 119.29 42.81 119.35 42.81"/><polygon class="b" points="104.39 11.66 104.33 11.66 104.24 11.66 103.35 11.69 102.5 11.77 101.68 11.87 100.82 12.02 100.01 12.19 99.22 12.44 98.44 12.69 97.66 13.01 96.9 13.37 96.18 13.72 95.47 14.15 94.8 14.59 94.12 15.08 93.52 15.58 92.92 16.15 92.34 16.72 97.3 0.85 85.78 0.85 72.46 42.82 83.97 42.82 89.17 26.34 89.24 26.24 89.24 26.16 89.49 25.38 89.71 24.89 89.99 24.39 90.27 23.92 90.6 23.46 90.92 23.02 91.3 22.64 91.73 22.28 92.16 21.93 92.59 21.61 93.09 21.32 93.59 21.11 94.09 20.89 94.62 20.71 95.19 20.57 95.77 20.47 96.34 20.43 96.62 20.47 96.87 20.53 97.11 20.6 97.36 20.71 97.58 20.85 97.79 21 98.01 21.14 98.18 21.32 98.36 21.53 98.51 21.71 98.64 21.96 98.75 22.18 98.83 22.42 98.9 22.67 98.94 22.92 98.94 23.17 98.9 23.67 98.79 24.14 92.73 42.82 104.33 42.82 111.16 21.53 111.27 21.21 111.37 20.89 111.44 20.53 111.48 20.17 111.58 19.78 111.66 19.35 111.69 18.9 111.73 18.47 111.69 17.79 111.58 17.11 111.44 16.51 111.23 15.9 110.95 15.33 110.63 14.8 110.24 14.26 109.8 13.8 109.37 13.37 108.88 12.98 108.35 12.65 107.78 12.34 107.17 12.13 106.56 11.95 105.92 11.8 105.24 11.73 104.92 11.73 104.64 11.66 104.5 11.66 104.39 11.66"/><path class="b" d="M470.6,539.91v-6.45h-2.21v-1.33h6v1.33h-2.25v6.45ZM488,537.06l1.57.46-.07.32-.14.29-.11.24-.14.25-.18.25-.17.17-.18.18-.21.18-.21.14-.25.14-.25.11-.25.07-.28.06-.28,0-.28,0h-.75l-.36,0-.35-.11-.36-.11-.32-.14-.32-.18-.29-.22-.24-.24-.25-.3-.22-.32-.18-.36-.17-.35-.11-.4-.07-.43-.07-.39V536l0-.4,0-.42.07-.4.14-.39.14-.36.18-.36.22-.32.25-.28.28-.26.28-.21.32-.17.32-.18.36-.11.39-.07.39-.07h.78l.32,0,.36.06.28.12.32.09.25.15.29.17.21.18.29.28.21.33.17.38.18.43-1.64.4-.07-.28-.14-.25-.17-.25-.22-.18-.25-.14-.25-.11-.28-.07-.33,0-.21,0h-.21l-.22.07-.18.07-.18.07-.17.11-.14.11-.15.18-.18.22-.14.21-.11.25-.1.29-.07.24-.07.28,0,.29v.56l0,.29.07.26.07.27.1.26.11.21.14.24.18.18.15.14.14.14.17.12.18.06.18.07.18.07.21,0h.21l.32,0,.29-.07.28-.1.25-.18.22-.24.17-.29.14-.32Zm20.78-1,0,.5.11.46.07.25.11.22.1.22.15.17.14.18.17.18.19.14.18.12.25.1.21.08.29,0,.24,0,.28,0,.25,0,.25-.08.22-.1.21-.12.19-.14.14-.18.14-.18.14-.21.1-.21.11-.22.07-.21.11-.5,0-.49,0-.5-.11-.46-.07-.25-.11-.22-.1-.18-.1-.22-.18-.18-.14-.15-.19-.14-.21-.11-.22-.11-.25-.07-.25,0-.28,0-.29,0-.25,0-.25.07-.21.11-.22.11-.18.14-.14.18-.18.19-.11.18-.1.21-.11.21L509,535l-.11.5Zm-1.57,0v-.25l0-.29,0-.25.07-.29.18-.56.25-.53.18-.26.14-.24.18-.21.22-.21.17-.19.26-.18.21-.14.25-.14.36-.11.39-.11.43-.07h.89l.39.07.39.11.36.13.33.15.32.21.29.21.28.3.22.28.21.28.18.32.14.36.15.41.07.39.08.38v.83l-.08.39-.07.39-.15.36-.14.36-.18.33-.21.32-.22.29-.28.25-.29.22-.32.21-.33.17-.36.11-.39.11-.39.07h-.82l-.43-.07-.35-.11-.36-.11-.36-.17-.33-.18-.28-.26-.25-.25-.25-.29-.21-.29-.18-.32-.14-.35-.15-.36-.07-.38-.07-.4Zm8.84,3.84v-7.69h1.54v6.38H521v1.32Zm24.45,0v-3.27l-2.74-4.5h1.78l1.75,3.07,1.75-3.07h1.75l-2.75,4.53v3.24Zm-64.64,0v-7.77h5.59v1.33h-4.06v1.71h3.78v1.32h-3.78v2.11h4.21v1.32Zm15.22,0v-7.77h1.54v3.07h3.45v-3.07h1.49v7.77h-1.49v-3.38h-3.45v3.38Zm8.34,0v-7.77h1.32l3.56,5.21v-5.21h1.43v7.77h-1.4l-3.49-5v5ZM523,536l0,.5.11.46.07.25.11.22.1.22.15.17.15.18.17.18.18.14.21.12.22.1.21.08.29,0,.25,0,.29,0,.25,0,.24-.08.21-.1.21-.12.18-.14.14-.18.18-.18.11-.21.11-.21.1-.22.07-.21.11-.5,0-.49,0-.5-.11-.46-.07-.25-.1-.22-.11-.18-.11-.22-.14-.18-.18-.15-.18-.14-.21-.11-.21-.11-.24-.07-.25,0-.29,0-.29,0-.25,0-.25.07-.21.11-.18.11-.22.14-.14.18-.15.19-.15.18-.1.21-.11.21-.07.22-.11.5Zm-1.57,0v-.25l0-.29.07-.25,0-.29.21-.56.25-.53.14-.26.15-.24.17-.21.21-.21.22-.19.21-.18.25-.14.21-.14.39-.11.39-.11.39-.07h.9l.38.07.39.11.36.13.31.15.32.21.29.21.28.3.22.28.21.28.18.32.18.36.11.41.07.39.07.38v.83l-.07.39-.07.39-.11.36-.18.36-.18.33-.18.32-.25.29-.25.25-.32.22-.28.21-.35.17-.36.11-.39.11-.38.07h-.83l-.39-.07-.39-.11-.35-.11-.36-.17-.32-.18-.29-.26-.25-.25-.24-.29-.22-.29-.18-.32-.14-.35-.1-.36-.11-.38,0-.4Zm12.65,1v-1.31h3.28v4.19h-1.21v-.46l-.46.21-.5.18-.26.06-.28,0-.25,0h-.25l-.61,0-.53-.08-.25-.07-.25-.11-.22-.1-.21-.11-.22-.14-.21-.15-.18-.13-.18-.18-.14-.22-.15-.17-.14-.22-.11-.24-.22-.47-.14-.54-.07-.49,0-.57,0-.57.11-.56.15-.51.22-.5.13-.21.15-.21.14-.21.18-.18.18-.19.22-.18.21-.14.25-.11.35-.17.43-.15.5-.07h.86l.32,0,.28,0,.29.07.28.08.25.09.22.15.22.14.17.14.18.19.14.16.14.22.11.22.11.21.07.25.08.29-1.28.25-.11-.29-.14-.24-.18-.21-.21-.19-.28-.14-.29-.11-.32-.07h-.64l-.22,0-.25.07-.21.07-.22.11-.18.11-.18.14-.15.15-.17.22-.11.21-.1.22-.08.24-.07.29,0,.25,0,.28v.61l0,.29,0,.24.07.28.08.25.1.22.15.22.14.21.15.14.18.14.18.11.22.11.21.07.25.07.22,0h.24l.39,0,.32,0,.29,0,.28-.07.21-.11.21-.11.19-.14.21-.14v-1Z" transform="translate(-418 -483.98)"/><path class="b" d="M449.86,508.26,451,508l1-.21.78-.22.6-.14,1.07-.25,1.08-.28,1.11-.33,1.1-.38.14-.32.15-.32.11-.32.07-.37,0-.35,0-.36,0-.36,0-.36-.36-.17-.39-.18L457,503l-.39-.14-.4-.15-.35-.07-.35-.1-.36,0-.6,0h-.64l-.61.08-.57.1-.57.14-.57.17-.53.22-.47.24-.36.25-.36.22-.46.4-.51.46-.46.58-.46.64-10.91-1.18.43-.68.43-.64.43-.57.42-.53.44-.5.39-.46.43-.43.46-.39.43-.43.5-.4.46-.39.5-.36.54-.35.53-.36.53-.32.57-.29.57-.32.6-.24.61-.25.61-.22.65-.22.67-.22.69-.14.68-.14.75-.15.75-.07.75-.11.75-.06.78,0,.75,0h2.6l1,0,1,0,1,.06.93.08.89.11.81.11.71.11.75.14.71.18.68.24.65.29.6.35.57.43.54.43.5.53.46.53.39.57.37.64.28.65.25.67.14.71.11.75,0,.74v.4l0,.6,0,.36-.07.35-.06.32-.11.37-.4,1.28L468.9,509l-.54,1.71-.64,2-.71,2.21-.83,2.53-.89,2.81-1,3.17-.1.36,0,.36,0,.35,0,.36,0,.32.06.33.07.28.1.25H453.32v-.07l-.14-.25-.11-.25-.1-.24-.07-.25-.11-.57v-.93l0-.32.07-.33.11-.35-.79.64-.78.53-.78.47-.79.43-.53.28-.51.25-.46.22-.5.17-.83.32-.88.29-.92.24-.93.18-1,.18-1,.11-1,0h-1.74l-.71,0-.68-.07-.61-.06-.53-.11-.53-.12-.46-.14-.43-.18-.39-.16-.39-.23-.32-.21-.33-.25-.32-.25-.27-.29-.26-.28-.25-.29-.22-.33-.21-.29-.17-.31-.18-.33-.15-.35-.11-.36-.11-.36-.11-.36-.07-.39,0-.39,0-.39v-.39l0-.43.07-.43.06-.43.12-.45.14-.46.15-.46.17-.41.18-.42.22-.39.17-.35.25-.36.21-.35.53-.64.58-.6.6-.57.64-.57.75-.53.86-.46.92-.47,1-.43,1.11-.39,1.21-.36,1.28-.32,1.39-.28.78-.14L446,509l.71-.14.71-.11.68-.14.64-.11.57-.1Zm6.13,3.63-.64.22-.69.18-.64.22-.68.18-.69.14L452,513l-.68.17-.68.14-.43.1-.36.11-1.46.43-1.22.39-.49.22-.46.18-.4.21-.32.18-.28.22-.25.21-.24.25-.25.25-.18.29-.18.25-.17.29-.1.28-.11.35-.07.33v.29l0,.31.07.28.11.25.14.25.14.22.25.25.21.21.25.14.28.11.32.07.35.07.43,0h.43l.78-.07.82-.14.39-.07.39-.11.4-.11.39-.14.36-.14.36-.17.47-.25.46-.25.43-.25.35-.29.35-.33.36-.27.28-.32.28-.32.29-.33.29-.38.24-.39.26-.43.21-.42.22-.46.21-.47.18-.49Z" transform="translate(-418 -483.98)"/><path class="b" d="M585.76,508.26l1.1-.22.93-.21.78-.22.64-.14,1.07-.25,1.07-.28,1.07-.33,1.14-.38.14-.32.14-.32.11-.32.07-.37,0-.35v-.75l0-.35-.36-.18-.39-.17-.39-.14-.4-.14-.78-.22-.68-.14-.64,0h-.6l-.61.08-.61.1-.57.14-.54.17-.53.22-.5.24-.37.25-.31.22-.51.4-.46.46-.46.58-.5.64L573,504.73l.43-.68.43-.64.39-.57.42-.53.43-.5.43-.5.43-.42.43-.39.46-.43.49-.39.48-.39.49-.36.54-.35.54-.32.53-.32.57-.33.57-.29.57-.24.65-.25.6-.22.64-.22.68-.18.64-.18.71-.14.74-.15.75-.11.75-.08.75-.06.79,0,.75,0h2.6l1,0,1,0,1,.06.93.08.85.11.82.11.75.11.75.14.68.18.68.24.67.29.61.35.57.43.53.43.51.53.46.53.39.57.35.64.28.65.21.67.18.71.1.75,0,.74,0,.4,0,.6-.14.71-.18.69-.43,1.28-.46,1.49-.54,1.71-.6,2-.71,2.21-.79,2.53-.89,2.81-1,3.17-.08.32,0,.33,0,.36v.36l.07.35,0,.32.11.32.1.25H589.21v-.07l-.14-.25-.1-.25-.11-.24-.07-.25-.11-.57,0-.57,0-.36,0-.32.07-.33.11-.35-.79.64-.78.53-.83.47-.74.43-.53.28-.5.25-.46.22-.5.17-.85.32L582,526l-.89.24-1,.18-1,.18-1,.11-1,0h-1.74l-.68,0-.68-.07-.61-.06-.57-.11-.5-.12-.46-.14-.42-.18-.44-.16-.35-.23-.36-.21-.33-.25-.28-.25-.29-.29-.24-.28-.29-.29-.21-.33-.18-.29-.18-.31-.18-.33-.14-.35-.14-.36-.11-.36-.07-.36-.07-.39,0-.39,0-.39v-.39l0-.43,0-.43.1-.43.07-.45.15-.46.17-.46.18-.41.18-.42.17-.39.22-.35.21-.36.25-.35.54-.64.53-.6.61-.57.68-.57.75-.53.81-.46.93-.47,1-.43,1.1-.39,1.18-.36,1.31-.32,1.39-.28.78-.14.74-.14.75-.14.71-.11.64-.14.65-.11.6-.1Zm6.13,3.63-.64.22-.68.18-.68.22-.64.18-.68.14-.68.19-.68.17-.68.14-.42.1-.35.11-1.5.43-1.18.39-.53.22-.43.18-.39.21-.32.18-.29.22-.28.21-.25.25-.22.25-.22.29-.18.25-.14.29-.1.28-.11.35-.07.33v.29l0,.31.07.28.1.25.15.25.14.22.22.25.25.21.25.18.28.11.32.11.35.08h.85l.79-.08.75-.14.75-.18.68-.21.71-.29.64-.32.6-.39.61-.39.53-.46.54-.5.46-.53.44-.57.38-.61.37-.64.28-.67.25-.68Z" transform="translate(-418 -483.98)"/></svg>