<?xml version="1.0" encoding="UTF-8"?><svg id="uuid-95601870-a4ea-423c-8817-0322bb8acd05" xmlns="http://www.w3.org/2000/svg" viewBox="0 0 170.84 43">
<title>EZVIZ logo - Brandlogos.net</title><g id="uuid-072d7f98-f07c-4e56-9aeb-113280cb0bf6"><g id="uuid-5f3678ca-ffab-428c-96a1-313446d05d84"><path d="M45.09,7.64c-.68-4.2-5.8-6.72-11.89-5.51-3.64.8-6.94,2.74-9.42,5.53,5.65.51,10.43,4.38,12.11,9.8,7.32-1.42,9.84-5.11,9.2-9.82" style="fill:#9dc814;"/><path d="M30,18h.4c-1.56-3.54-5.32-5.56-9.13-4.91-.02.19-.02.39,0,.58.63,3.21,4.19,4.33,8.73,4.33" style="fill:#9dc814;"/><path d="M22.59,12c3.89,0,7.39,2.38,8.83,6,1.1-.05,2.24-.16,3.4-.31h.09c-1.66-5.22-6.43-8.82-11.9-9-.8,1.02-1.37,2.2-1.67,3.46.41-.08.83-.13,1.25-.15" style="fill:#9dc814;"/><path d="M15.21,25h-.39c1.38,3.05,4.42,5,7.77,5,.47.01.94-.02,1.41-.08,0-.19-.02-.38-.05-.57-.67-3.23-4.23-4.35-8.74-4.35" style="fill:#e61673;"/><path d="M22.59,31c-3.89,0-7.39-2.38-8.83-6-1.1.05-2.24.15-3.39.3h-.1c1.66,5.22,6.43,8.82,11.9,9,.8-1.02,1.38-2.2,1.68-3.46-.42.06-.84.1-1.26.1" style="fill:#e61673;"/><path d="M9.3,25.55C2,27-.55,30.66.1,35.37c.67,4.2,5.79,6.72,11.88,5.5,3.64-.8,6.94-2.73,9.42-5.52-5.65-.49-10.44-4.37-12.1-9.8" style="fill:#e61673;"/><path d="M19,13.77c-3.01,1.4-4.93,4.41-4.94,7.73,0,.46.04.92.12,1.38.9-.2,1.73-.68,2.35-1.36,1.35-1.42,2.19-4.46,2.47-7.75" style="fill:#00a0e9;"/><path d="M13.07,21.5c.01-3.89,2.38-7.39,6-8.84.05-1.18.02-2.37-.07-3.55-5.52,1.6-9.32,6.65-9.32,12.39v.16c1.02.76,2.23,1.22,3.5,1.3-.08-.48-.12-.97-.12-1.46" style="fill:#00a0e9;"/><path d="M18.92,8.1c-.14-1.82-.68-3.59-1.59-5.18-1.04-1.75-2.9-2.85-4.94-2.92-2.03,0-4.26,1.13-6.39,3.5-4.2,4.62-2.28,10.77.42,14.73.65.98,1.42,1.88,2.29,2.67.27-6.03,4.39-11.19,10.21-12.8" style="fill:#00a0e9;"/><path d="M26.27,34.9c.13,1.83.67,3.6,1.59,5.18,1.04,1.75,2.9,2.85,4.94,2.92,2,0,4.25-1.14,6.42-3.51,4.21-4.61,2.29-10.77-.41-14.73-.67-.98-1.45-1.87-2.34-2.66-.26,6.03-4.38,11.2-10.2,12.8" style="fill:#fabe00;"/><path d="M26.19,29.23c3.01-1.4,4.93-4.41,4.94-7.73,0-.46-.05-.92-.13-1.37-.9.19-1.72.67-2.34,1.36-1.35,1.42-2.19,4.46-2.48,7.74" style="fill:#fabe00;"/><path d="M32.12,21.5c0,3.9-2.38,7.4-6,8.84-.06,1.19-.04,2.38.05,3.56,5.52-1.6,9.32-6.65,9.33-12.4v-.15c-1.01-.78-2.23-1.24-3.5-1.35.08.48.13.97.13,1.46" style="fill:#fabe00;"/><path d="M82.29,8.92h15.55c.12,0,.21.1.2.22,0,.05-.02.1-.05.13,0,0-10.1,9.59-15.5,15-1,1-.67,2.6.69,2.6h21.62v-2.81h-15.59c-.11,0-.2-.08-.21-.19,0-.05.02-.11.06-.15l15.52-15c1-1,.67-2.6-.68-2.6h-21.61v2.8Z" style="fill:#727171;"/><path d="M141.62,8.92h15.55c.12,0,.21.1.2.22,0,.05-.02.1-.05.13,0,0-10.1,9.59-15.5,15-1,1-.67,2.6.69,2.6h21.62v-2.81h-15.59c-.11,0-.2-.08-.21-.19,0-.05.02-.11.06-.15l15.52-15c1-1,.67-2.6-.68-2.6h-21.61v2.8Z" style="fill:#727171;"/><polygon points="135.05 6.15 134.17 6.15 134.17 26.83 135.05 26.83 137.9 26.83 138.53 26.83 138.53 6.15 137.9 6.15 135.05 6.15" style="fill:#727171;"/><rect x="63.29" y="15.03" width="16.39" height="2.67" style="fill:#727171;"/><path d="M61.36,12.39c-.12-1.8,1.24-3.35,3.04-3.46.11,0,.21,0,.32,0h15.28v-2.77h-17.07c-5,0-7,3.5-7,6.73h0v7.22h0c0,3.23,2,6.73,7,6.73h17.07v-2.76h-15.28c-1.8.06-3.31-1.35-3.37-3.15,0-.11,0-.21,0-.32v-8.21Z" style="fill:#727171;"/><path d="M127.69,6.15l-8.26,15.24s-.08.07-.13.07c-.05,0-.1-.02-.12-.07l-8.27-15.24h-5l11.15,20c.25.45.72.72,1.23.72h2c.51,0,.98-.27,1.22-.72l11.16-20h-4.98Z" style="fill:#727171;"/><polygon points="167.67 6.57 166.9 6.57 166.9 8.89 166.34 8.89 166.34 6.57 165.57 6.57 165.57 6.14 167.67 6.14 167.67 6.57" style="fill:#727171;"/><polygon points="168.7 6.14 169.4 8.17 169.41 8.17 170.12 6.14 170.84 6.14 170.84 8.89 170.29 8.89 170.29 8.07 170.34 6.86 170.33 6.86 169.59 8.89 169.22 8.89 168.49 6.86 168.48 6.86 168.53 8.07 168.53 8.89 167.98 8.89 167.98 6.14 168.7 6.14" style="fill:#727171;"/><path d="M61.53,37h0c-.02.55-.26,1.07-.66,1.45-.43.37-.98.56-1.55.53-.64.03-1.25-.24-1.65-.74-.44-.54-.66-1.22-.63-1.92v-1c-.03-.7.19-1.38.63-1.92.41-.49,1.02-.76,1.65-.74.57-.03,1.13.15,1.56.52.4.38.63.91.65,1.46h-.47c-.04-.44-.22-.85-.53-1.17-.33-.29-.76-.43-1.2-.4-.5-.01-.98.22-1.29.62-.34.46-.52,1.03-.49,1.6v1c-.05.58.11,1.16.45,1.64.31.4.79.63,1.29.62.44.03.87-.11,1.21-.39.31-.31.51-.72.56-1.16h.47Z" style="fill:#717071;"/><path d="M64.8,34.76h-.37c-.28-.01-.56.08-.78.26-.22.2-.37.46-.44.74v3.15h-.51v-4.58h.45l.06.76h0c.12-.26.3-.49.53-.66.23-.16.51-.25.79-.24h.34l-.07.57Z" style="fill:#717071;"/><path d="M67.28,39c-.55.01-1.07-.22-1.43-.63-.38-.45-.58-1.02-.56-1.6v-.24c-.02-.59.18-1.17.56-1.62.34-.41.84-.65,1.37-.65.5-.02.98.17,1.32.53.32.39.49.89.46,1.4v.43h-3.21v.13c0,.45.14.89.41,1.25.25.34.66.53,1.08.52.28,0,.55-.04.81-.13.21-.08.41-.21.57-.37l.21.34c-.18.19-.4.34-.65.43-.3.11-.62.17-.94.16M67.22,34.64c-.38-.02-.75.14-1,.43-.26.3-.41.68-.44,1.07h2.68v-.12c0-.36-.11-.72-.35-1-.25-.28-.62-.43-1-.4" style="fill:#717071;"/><path d="M72.91,38.89c-.03-.13-.05-.27-.07-.4v-.34c-.18.25-.41.45-.68.6-.31.16-.65.24-1,.23-.37.02-.73-.11-1-.35-.27-.26-.4-.63-.37-1,0-.4.2-.78.54-1,.44-.28.96-.41,1.48-.38h1v-.57c-.01-.26-.12-.5-.31-.68-.25-.2-.56-.3-.88-.28-.31-.01-.62.08-.87.27-.22.14-.35.39-.35.65h-.47c-.01-.36.16-.71.46-.91.36-.28.8-.42,1.25-.41.44-.02.87.12,1.22.39.32.27.49.68.46,1.1v2.19c-.01.16-.01.31,0,.47.02.15.05.3.09.45l-.5-.03ZM71.25,38.54c.35.01.7-.08,1-.26.26-.15.47-.38.61-.65v-1h-1c-.39-.02-.77.09-1.1.3-.25.16-.41.43-.41.73,0,.23.09.45.26.6.19.17.44.25.7.24" style="fill:#717071;"/><path d="M75.46,33.16v1.17h1v.41h-1v3c-.02.22.04.44.16.63.11.13.27.2.44.19h.5l.08.38c-.1.04-.2.07-.31.08l-.33-.02c-.28,0-.55-.1-.75-.3-.21-.29-.31-.64-.27-1v-3h-.79v-.41h.81v-1.13h.46Z" style="fill:#717071;"/><path d="M78.1,33h-.5v-.71h.5v.71ZM78.1,38.87h-.5v-4.54h.5v4.54Z" style="fill:#717071;"/><path d="M80,34.33v.79c.13-.27.34-.49.59-.65.27-.16.57-.24.88-.23.43-.03.85.14,1.14.46.29.41.43.91.39,1.41v2.78h-.5v-2.78c.04-.39-.07-.79-.3-1.11-.21-.23-.52-.36-.83-.33-.31,0-.62.09-.87.28-.23.2-.39.46-.48.75v3.19h-.52v-4.56h.5Z" style="fill:#717071;"/><path d="M84.12,36.65c-.03-.62.13-1.23.46-1.75.5-.67,1.42-.85,2.14-.44.24.15.45.35.59.6l.06-.73h.42v4.51c.02.51-.15,1-.48,1.39-.36.35-.86.54-1.36.51-.24,0-.47-.03-.7-.08-.23-.04-.44-.12-.65-.22l.13-.43c.18.09.37.16.57.21.21.04.42.07.64.07.37.02.74-.12,1-.39.24-.3.36-.68.34-1.06v-.58c-.15.22-.35.41-.59.54-.26.12-.54.19-.83.18-.5.02-.99-.2-1.29-.61-.33-.48-.49-1.05-.46-1.63v-.09ZM84.62,36.74c0,.47.12.93.38,1.32.23.33.6.51,1,.49.29.01.57-.07.81-.22.23-.16.4-.38.51-.63v-2.12c-.1-.26-.27-.48-.49-.65-.24-.18-.53-.27-.83-.26-.41,0-.79.2-1,.55-.24.44-.36.93-.34,1.43l-.04.09Z" style="fill:#717071;"/><polygon points="94.84 35.92 91.88 35.92 91.88 38.46 95.27 38.46 95.27 38.9 91.38 38.9 91.38 32.75 95.25 32.75 95.25 33.18 91.88 33.18 91.88 35.49 94.84 35.49 94.84 35.92" style="fill:#717071;"/><path d="M99.11,38.89c-.03-.13-.05-.27-.07-.4-.01-.11-.01-.23,0-.34-.18.25-.41.45-.68.6-.31.16-.65.24-1,.23-.37.01-.72-.11-1-.35-.26-.26-.4-.63-.37-1,0-.41.21-.78.55-1,.44-.26.95-.38,1.46-.34h1v-.57c0-.27-.11-.53-.3-.72-.25-.2-.56-.3-.88-.28-.31-.01-.62.08-.87.27-.22.14-.35.39-.35.65h-.47c0-.36.17-.7.47-.91.36-.28.8-.42,1.25-.41.44-.02.87.12,1.22.39.31.28.48.68.46,1.1v2.19c-.01.16-.01.31,0,.47,0,.15.04.3.09.45l-.51-.03ZM97.45,38.54c.35.01.7-.08,1-.26.26-.15.47-.38.61-.65v-1h-1.06c-.39-.02-.77.08-1.1.3-.26.15-.41.43-.41.73,0,.23.08.45.25.6.2.17.45.26.71.24" style="fill:#717071;"/><path d="M103.6,37.73c0-.22-.1-.42-.26-.56-.3-.21-.64-.34-1-.39-.43-.07-.84-.23-1.21-.47-.26-.19-.41-.5-.4-.82,0-.35.17-.68.45-.89.33-.25.74-.38,1.16-.36.44-.02.88.11,1.23.38.3.24.46.62.43,1h-.47c0-.26-.12-.5-.32-.66-.24-.19-.55-.29-.86-.28-.3-.02-.59.06-.83.24-.17.14-.27.34-.27.56,0,.2.09.39.24.52.3.19.64.31,1,.36.44.08.85.25,1.22.5.27.2.42.52.4.85,0,.37-.16.72-.46.93-.36.25-.79.38-1.22.35-.47.03-.93-.11-1.31-.39-.31-.24-.48-.61-.45-1h.47c0,.29.15.56.4.71.27.15.57.23.88.22.31.02.61-.07.86-.24.2-.13.32-.34.32-.58" style="fill:#717071;"/><path d="M106.57,37.66l.16.54h0l1.38-3.87h.57l-2,5.3c-.11.28-.26.55-.46.78-.21.23-.51.35-.82.33h-.41l.06-.42h.33c.2,0,.4-.08.53-.24.15-.18.26-.38.33-.6l.24-.61-1.76-4.51h.56l1.29,3.3Z" style="fill:#717071;"/><path d="M115.26,37.38c.01-.32-.13-.62-.38-.82-.39-.27-.84-.46-1.31-.56-.55-.11-1.06-.34-1.52-.66-.34-.26-.54-.66-.52-1.09,0-.46.21-.89.58-1.15.43-.31.96-.46,1.49-.44.56-.03,1.11.16,1.53.53.38.32.59.79.57,1.28h-.47c0-.38-.15-.75-.44-1-.33-.28-.75-.42-1.18-.4-.41-.02-.82.09-1.16.33-.26.19-.41.5-.41.82,0,.3.14.58.38.77.4.27.85.46,1.33.55.55.12,1.06.35,1.51.68.34.28.53.7.52,1.14,0,.47-.22.91-.61,1.17-.45.3-.99.45-1.53.43-.57.02-1.13-.15-1.61-.46-.45-.29-.71-.81-.66-1.35h.46c-.02.42.18.83.54,1.06.38.24.82.35,1.26.34.42.02.83-.09,1.18-.32.29-.19.46-.51.45-.85" style="fill:#717071;"/><path d="M117.23,34.33v.75c.14-.25.34-.47.59-.62.27-.15.57-.23.87-.22.31-.01.62.08.87.26.26.19.44.46.51.77.12-.3.33-.56.59-.76.27-.19.6-.28.93-.27.43-.02.85.16,1.13.49.3.44.43.97.39,1.5v2.66h-.5v-2.67c.04-.42-.07-.85-.3-1.2-.21-.24-.51-.36-.83-.35-.34-.02-.68.12-.91.37-.22.27-.35.6-.39.94v2.91h-.51v-2.67c.04-.42-.07-.84-.3-1.19-.2-.25-.51-.38-.83-.36-.31-.02-.61.08-.85.28-.22.19-.37.45-.44.73v3.21h-.52v-4.56h.5Z" style="fill:#717071;"/><path d="M127.35,38.89c0-.15,0-.28-.07-.4s0-.22,0-.34c-.18.25-.41.45-.67.6-.31.16-.65.24-1,.23-.37.02-.72-.11-1-.35-.27-.26-.4-.63-.37-1,0-.41.2-.79.55-1,.44-.28.95-.41,1.47-.38h1v-.57c0-.25-.09-.49-.26-.68-.25-.2-.56-.29-.88-.28-.32-.01-.63.08-.88.27-.22.15-.35.39-.35.65h-.46c0-.36.17-.71.47-.91.35-.28.8-.43,1.25-.41.44-.02.87.12,1.21.39.32.27.49.68.46,1.1v2.19c-.01.16-.01.31,0,.47.02.15.05.3.09.45l-.56-.03ZM125.7,38.54c.35.01.7-.08,1-.26.26-.15.47-.38.6-.65v-1h-1c-.39-.02-.77.09-1.1.3-.25.16-.41.43-.41.73,0,.23.09.45.26.6.2.17.45.26.71.24" style="fill:#717071;"/><path d="M131.21,34.76h-.37c-.29,0-.57.08-.79.26-.21.2-.36.46-.43.74v3.15h-.51v-4.58h.44l.07.76h0c.12-.26.3-.49.53-.66.23-.16.51-.25.79-.24h.34l-.07.57Z" style="fill:#717071;"/><path d="M133,33.16v1.17h1v.41h-1v3c-.02.22.04.44.17.63.1.13.26.2.43.19h.5l.08.38c-.1.04-.2.07-.31.08h-.36c-.28,0-.55-.1-.75-.3-.21-.29-.31-.64-.27-1v-3h-.79v-.41h.79v-1.15h.51Z" style="fill:#717071;"/><polygon points="141.8 38.89 141.3 38.89 141.3 36.07 137.8 36.07 137.8 38.89 137.3 38.89 137.3 32.75 137.8 32.75 137.8 35.64 141.3 35.64 141.3 32.75 141.8 32.75 141.8 38.89" style="fill:#717071;"/><path d="M143,36.54c-.02-.6.18-1.19.56-1.65.36-.43.9-.67,1.46-.65.56-.02,1.1.22,1.47.65.38.46.58,1.05.55,1.65v.14c.03.6-.17,1.19-.55,1.66-.36.44-.92.69-1.49.66-.56.02-1.1-.21-1.47-.64-.38-.47-.58-1.06-.56-1.66l.03-.16ZM143.51,36.68c-.02.48.12.94.4,1.33.49.62,1.38.72,1.99.24.09-.07.17-.15.24-.24.28-.39.42-.85.4-1.33v-.14c.02-.47-.12-.94-.4-1.32-.26-.36-.68-.57-1.12-.55-.44-.02-.86.19-1.11.55-.28.38-.42.85-.4,1.32v.14Z" style="fill:#717071;"/><path d="M148.52,34.33v.75c.14-.25.34-.47.59-.62.27-.15.57-.23.87-.22.31-.01.62.08.87.26.26.19.44.46.51.77.12-.3.33-.56.59-.76.27-.19.6-.28.93-.27.43-.02.85.16,1.13.49.3.44.43.97.39,1.5v2.66h-.5v-2.67c.04-.42-.07-.85-.3-1.2-.21-.24-.51-.36-.83-.35-.34-.02-.68.12-.91.37-.22.27-.36.6-.4.94,0,.03,0,.06,0,.09v2.82h-.46v-2.67c.04-.42-.07-.84-.3-1.19-.2-.25-.51-.38-.83-.36-.32-.01-.64.11-.87.33-.22.19-.38.45-.45.73v3.21h-.51v-4.61h.48Z" style="fill:#717071;"/><path d="M157.47,39c-.55.01-1.07-.22-1.43-.63-.39-.44-.59-1.01-.57-1.6v-.24c-.02-.59.18-1.17.57-1.62.33-.41.83-.65,1.36-.65.5-.02.98.17,1.32.53.34.39.52.9.49,1.42v.43h-3.21v.13c-.02.46.13.91.41,1.28.25.34.66.53,1.08.52.27,0,.54-.04.8-.13.21-.08.41-.21.57-.37l.22.34c-.18.19-.4.34-.65.43-.3.11-.62.17-.94.16M157.42,34.69c-.36,0-.71.16-.94.43-.26.3-.41.68-.44,1.07h2.67v-.12c.01-.37-.11-.72-.35-1-.24-.27-.59-.41-.95-.4" style="fill:#717071;"/><path d="M162.94,37.73c0-.22-.1-.42-.26-.56-.3-.21-.64-.34-1-.39-.43-.07-.84-.23-1.21-.47-.25-.2-.4-.5-.39-.82,0-.35.16-.68.44-.89.33-.25.74-.38,1.16-.36.44-.02.88.11,1.23.38.3.24.46.62.43,1h-.47c0-.26-.12-.5-.32-.66-.24-.19-.55-.29-.86-.28-.29-.02-.58.06-.82.24-.18.13-.28.34-.28.56,0,.2.09.39.24.52.29.18.61.31.95.36.44.08.85.25,1.22.5.27.2.42.52.4.85,0,.37-.16.72-.46.93-.36.25-.79.38-1.22.35-.47.03-.93-.11-1.31-.39-.31-.24-.48-.61-.45-1h.47c0,.29.15.56.4.71.27.15.57.23.88.22.31.02.61-.07.87-.24.19-.13.31-.35.31-.58" style="fill:#717071;"/><path d="M45.09,7.64c-.68-4.2-5.8-6.72-11.89-5.51-3.64.8-6.94,2.74-9.42,5.53,5.65.51,10.43,4.38,12.11,9.8,7.32-1.42,9.84-5.11,9.2-9.82" style="fill:#96be24;"/><path d="M30,18h.4c-1.56-3.54-5.32-5.56-9.13-4.91-.02.19-.02.39,0,.58.63,3.21,4.19,4.33,8.73,4.33" style="fill:#96be24;"/><path d="M22.59,12c3.89,0,7.39,2.38,8.83,6,1.1-.05,2.24-.16,3.4-.31h.09c-1.66-5.22-6.43-8.82-11.9-9-.8,1.02-1.37,2.2-1.67,3.46.41-.08.83-.13,1.25-.15" style="fill:#96be24;"/><path d="M15.21,25h-.39c1.38,3.05,4.42,5,7.77,5,.47.01.94-.02,1.41-.08,0-.19-.02-.38-.05-.57-.67-3.23-4.23-4.35-8.74-4.35" style="fill:#d5206d;"/><path d="M22.59,31c-3.89,0-7.39-2.38-8.83-6-1.1.05-2.24.15-3.39.3h-.1c1.66,5.22,6.43,8.82,11.9,9,.8-1.02,1.38-2.2,1.68-3.46-.42.06-.84.1-1.26.1" style="fill:#d5206d;"/><path d="M9.3,25.55C2,27-.55,30.66.1,35.37c.67,4.2,5.79,6.72,11.88,5.5,3.64-.8,6.94-2.73,9.42-5.52-5.65-.49-10.44-4.37-12.1-9.8" style="fill:#d5206d;"/><path d="M19,13.77c-3.01,1.4-4.93,4.41-4.94,7.73,0,.46.04.92.12,1.38.9-.2,1.73-.68,2.35-1.36,1.35-1.42,2.19-4.46,2.47-7.75" style="fill:#1e95d4;"/><path d="M13.07,21.5c.01-3.89,2.38-7.39,6-8.84.05-1.18.02-2.37-.07-3.55-5.52,1.6-9.32,6.65-9.32,12.39v.16c1.02.76,2.23,1.22,3.5,1.3-.08-.48-.12-.97-.12-1.46" style="fill:#1e95d4;"/><path d="M18.92,8.1c-.14-1.82-.68-3.59-1.59-5.18-1.04-1.75-2.9-2.85-4.94-2.92-2.03,0-4.26,1.13-6.39,3.5-4.2,4.62-2.28,10.77.42,14.73.65.98,1.42,1.88,2.29,2.67.27-6.03,4.39-11.19,10.21-12.8" style="fill:#1e95d4;"/><path d="M26.27,34.9c.13,1.83.67,3.6,1.59,5.18,1.04,1.75,2.9,2.85,4.94,2.92,2,0,4.25-1.14,6.42-3.51,4.21-4.61,2.29-10.77-.41-14.73-.67-.98-1.45-1.87-2.34-2.66-.26,6.03-4.38,11.2-10.2,12.8" style="fill:#efb918;"/><path d="M26.19,29.23c3.01-1.4,4.93-4.41,4.94-7.73,0-.46-.05-.92-.13-1.37-.9.19-1.72.67-2.34,1.36-1.35,1.42-2.19,4.46-2.48,7.74" style="fill:#efb918;"/><path d="M32.12,21.5c0,3.9-2.38,7.4-6,8.84-.06,1.19-.04,2.38.05,3.56,5.52-1.6,9.32-6.65,9.33-12.4v-.15c-1.01-.78-2.23-1.24-3.5-1.35.08.48.13.97.13,1.46" style="fill:#efb918;"/></g></g></svg>