<?xml version="1.0" encoding="UTF-8"?><svg id="Layer_1" xmlns="http://www.w3.org/2000/svg" viewBox="0 0 51.81 25.93"><defs><style>.cls-1{fill:#2682b6;}</style></defs><path class="cls-1" d="M11.59,22.47c-.99.34-2.03.5-3.07.46-2.33,0-3.52-1-3.52-3.28v-11.62H0l1.53,1v10.56c-.01,4.34,2.42,6.34,6.99,6.34,2.26.06,4.5-.37,6.58-1.24V8.04h-3.5v14.43Z"/><path class="cls-1" d="M26.01,7.69c-2.28-.02-4.54.4-6.65,1.24v16.6h3.5v-14.47c1.02-.36,2.1-.54,3.18-.52,2.41,0,3.63,1.26,3.63,3.31v11.67h3.53v-12c0-3.69-2.34-5.83-7.19-5.83"/><path class="cls-1" d="M44.15,19.72c-.39,1.26-.67,2.72-.67,2.72h-.07c-.18-.92-.42-1.83-.7-2.72l-3.67-11.68h-5.32l1.8,1.1,5.9,16.38h4.1l6.29-17.48h-3.97l-3.69,11.68Z"/><path class="cls-1" d="M36.67,5.39C31.79-.77,22.84-1.8,16.68,3.08c-.86.68-1.63,1.45-2.31,2.31,6.83-4.24,15.47-4.24,22.3,0"/></svg>